<svg xmlns="http://www.w3.org/2000/svg" width="475.503" height="511.963" viewBox="0 0 475.503 511.963">
  <path id="fort-awesome-brands" d="M489.2,287.9H461.8a4.526,4.526,0,0,0-4.6,4.6v32H420.6V146.2a4.526,4.526,0,0,0-4.6-4.6H388.6a4.526,4.526,0,0,0-4.6,4.6v32H347.4v-32a4.526,4.526,0,0,0-4.6-4.6H315.4a4.526,4.526,0,0,0-4.6,4.6v32H274.2v-32c0-6-8-4.6-11.7-4.6v-38a111.165,111.165,0,0,1,25.7-3.4c10.9,0,20.9,4.3,31.4,4.3,4.6,0,27.7-1.1,27.7-8v-60a4.526,4.526,0,0,0-4.6-4.6c-5.1,0-15.1,4.3-24,4.3-9.7,0-20.9-4.3-32.6-4.3a104.577,104.577,0,0,0-23.7,2.9V29.9a16.2,16.2,0,0,0,9.1-14.3c0-20.7-31.4-20.8-31.4,0a16.2,16.2,0,0,0,9.1,14.3V141.6c-3.7,0-11.7-1.4-11.7,4.6v32H200.9v-32a4.526,4.526,0,0,0-4.6-4.6H168.9a4.526,4.526,0,0,0-4.6,4.6v32H128v-32a4.526,4.526,0,0,0-4.6-4.6H96a4.526,4.526,0,0,0-4.6,4.6V324.5H54.8v-32a4.526,4.526,0,0,0-4.6-4.6H22.8a4.526,4.526,0,0,0-4.6,4.6V512H201.1V416c0-72.6,109.7-72.6,109.7,0v96H493.7V292.5a4.385,4.385,0,0,0-4.5-4.6Zm-288.1-4.5a4.526,4.526,0,0,1-4.6,4.6H169.1a4.526,4.526,0,0,1-4.6-4.6v-64a4.526,4.526,0,0,1,4.6-4.6h27.4a4.526,4.526,0,0,1,4.6,4.6Zm146.4,0a4.526,4.526,0,0,1-4.6,4.6H315.5a4.526,4.526,0,0,1-4.6-4.6v-64a4.526,4.526,0,0,1,4.6-4.6h27.4a4.526,4.526,0,0,1,4.6,4.6Z" transform="translate(-18.2 -0.037)" fill="#e1547a"/>
</svg>
