<svg xmlns="http://www.w3.org/2000/svg" width="512.006" height="448.007" viewBox="0 0 512.006 448.007">
  <path id="paw-solid" d="M256,224C176.59,224,64,346.76,64,424.25,64,459.15,90.81,480,135.74,480c48.84,0,81.09-25.08,120.26-25.08,39.51,0,71.85,25.08,120.26,25.08,44.93,0,71.74-20.85,71.74-55.75C448,346.76,335.41,224,256,224ZM108.72,211.39c-10.4-34.65-42.44-57.09-71.56-50.13S-7.13,201.95,3.27,236.6s42.44,57.09,71.56,50.13,44.29-40.69,33.89-75.34Zm84.72-20.78c30.94-8.14,46.42-49.94,34.58-93.36S181.5,25.24,150.56,33.38s-46.42,49.94-34.58,93.36S162.51,198.76,193.44,190.61Zm281.39-29.34c-29.12-6.96-61.15,15.48-71.56,50.13s4.77,68.38,33.89,75.34,61.15-15.48,71.56-50.13-4.77-68.38-33.89-75.34ZM318.56,190.61c30.94,8.14,65.62-20.45,77.46-63.87s-3.64-85.21-34.58-93.36-65.62,20.45-77.46,63.87S287.62,182.47,318.56,190.61Z" transform="translate(0.008 -31.993)" fill="#ca8bdc"/>
</svg>
