<svg xmlns="http://www.w3.org/2000/svg" width="511.963" height="511.963" viewBox="0 0 511.963 511.963">
  <path id="iconfinder_11_Search_106236" d="M497.877,497.877a48.082,48.082,0,0,1-68,0L345.018,413.02a222.584,222.584,0,0,1-120.65,35.714C100.462,448.735,0,348.287,0,224.367S100.462,0,224.368,0C348.29,0,448.736,100.445,448.736,224.367a222.856,222.856,0,0,1-35.715,120.667l84.857,84.857A48.061,48.061,0,0,1,497.877,497.877ZM224.368,64.1A160.262,160.262,0,1,0,384.629,224.366,160.26,160.26,0,0,0,224.368,64.1Z" fill="#faf05e"/>
</svg>
